<svg xmlns="http://www.w3.org/2000/svg" xmlns:xlink="http://www.w3.org/1999/xlink" width="87" height="24" viewBox="0 0 87 24"><defs><clipPath id="b"><rect width="87" height="24"/></clipPath></defs><g id="a" clip-path="url(#b)"><rect width="87" height="24" fill="rgba(255,255,255,0)"/><path d="M11.884-95.225a14.686,14.686,0,0,1,4.066.768,1.779,1.779,0,0,0,.482.09,4.536,4.536,0,0,0,.9-.271,1.446,1.446,0,0,1,.512-.09q1.009,0,2.131,1.6A5.345,5.345,0,0,1,21.1-90.089a2.092,2.092,0,0,1-.5,1.423,1.569,1.569,0,0,1-1.227.58,1.79,1.79,0,0,1-.979-.241,17.148,17.148,0,0,1-1.657-1.431,5.306,5.306,0,0,0-3.554-1.687,2.085,2.085,0,0,0-1.348.407,1.306,1.306,0,0,0-.5,1.069q0,1.31,2.3,1.973a33.776,33.776,0,0,1,3.991,1.34q3.84,1.867,3.84,5.5a6.341,6.341,0,0,1-2.62,5.241,11.109,11.109,0,0,1-7,2.078A19.382,19.382,0,0,1,7.772-74.3a9.684,9.684,0,0,1-3.087-1.077,4.2,4.2,0,0,1-1.3-2.1,9.328,9.328,0,0,1-.58-3.155,1.756,1.756,0,0,1,.3-1.114,1.157,1.157,0,0,1,.949-.482,1.5,1.5,0,0,1,1.1.587,22.008,22.008,0,0,1,1.491,2.123,4.093,4.093,0,0,0,1.77,1.4,5.941,5.941,0,0,0,2.507.557,3.49,3.49,0,0,0,1.807-.414,1.219,1.219,0,0,0,.693-1.062,1.3,1.3,0,0,0-.542-1.039,5.475,5.475,0,0,0-1.762-.813A23.541,23.541,0,0,1,7.833-82.13a9.915,9.915,0,0,1-2.108-1.423,6.278,6.278,0,0,1-2.379-4.789,5.8,5.8,0,0,1,.617-2.583A6.444,6.444,0,0,1,5.709-93.1,9.283,9.283,0,0,1,11.884-95.225ZM39.97-76.852l-1.551-2.485a9.588,9.588,0,0,0-.7-1.009.546.546,0,0,0-.414-.166q-.542,0-1.114.994L33.675-75.18q-.723,1.25-1.626,1.25a1.577,1.577,0,0,1-1.024-.384,5,5,0,0,1-1.009-1.3L25.5-83.132a11.841,11.841,0,0,0-1.762-2.379,3.333,3.333,0,0,0-1.1-.467,1.056,1.056,0,0,1-.55-.414,1.16,1.16,0,0,1-.218-.685q0-1.16,1.792-1.626a16.25,16.25,0,0,1,3.946-.452q4.8,0,4.8,1.792a2.143,2.143,0,0,1-.467,1.009.507.507,0,0,0-.09.286,5.468,5.468,0,0,0,.708,1.642q.783,1.491,1.355,1.491.331,0,.843-.753a2.4,2.4,0,0,0,.512-1.22,1.148,1.148,0,0,0-.226-.745,6.336,6.336,0,0,0-1.069-.881,1.04,1.04,0,0,1-.512-.858q0-1.175,2.41-1.536a22.772,22.772,0,0,1,3.434-.226,10.062,10.062,0,0,1,3.283.384A1.312,1.312,0,0,1,43.6-87.529a1.119,1.119,0,0,1-.12.557,5,5,0,0,1-.648.753.664.664,0,0,0-.166.467,5.182,5.182,0,0,0,.693,1.717q.6,1.145,1.1,1.145.542,0,1.37-1.461a4.194,4.194,0,0,0,.6-1.461,1.793,1.793,0,0,0-.482-.889,1.417,1.417,0,0,1-.346-.919A1.086,1.086,0,0,1,46.31-88.7,7.466,7.466,0,0,1,49.2-89.14a11.848,11.848,0,0,1,2.274.2,1.785,1.785,0,0,1,.934.489,1.181,1.181,0,0,1,.361.851,1,1,0,0,1-.422.813,6.381,6.381,0,0,1-1.054.422,2.365,2.365,0,0,0-.919.6,6.645,6.645,0,0,0-.873,1.4l-3.765,7.289q-1.657,3.193-2.922,3.193a1.793,1.793,0,0,1-1.2-.685A14.9,14.9,0,0,1,39.97-76.852ZM61.746-89.261a7.349,7.349,0,0,1,4.443,1.325,3.917,3.917,0,0,1,1.348,1.619,6.62,6.62,0,0,1,.384,2.507l-.03,2.244a8.573,8.573,0,0,0,.331,3.027,1.028,1.028,0,0,0,.316.422,2.056,2.056,0,0,0,.633.166.551.551,0,0,1,.482.633,2.556,2.556,0,0,1-.58,1.506,4.814,4.814,0,0,1-1.5,1.31,4.606,4.606,0,0,1-2.364.663,3.1,3.1,0,0,1-2.5-1.084.841.841,0,0,0-.587-.392,1.494,1.494,0,0,0-.8.376,5.652,5.652,0,0,1-3.419,1.1,5.505,5.505,0,0,1-3.193-.843,3.988,3.988,0,0,1-1.265-1.453,4.005,4.005,0,0,1-.467-1.875,3.726,3.726,0,0,1,1.265-2.771q1.973-1.9,5.9-1.913a2.145,2.145,0,0,0,1.1-.173q.226-.173.226-.806a5.892,5.892,0,0,0-.331-2.312A1.121,1.121,0,0,0,60.06-86.7a1.29,1.29,0,0,0-.806.271,5.058,5.058,0,0,0-.881.994q-1.34,1.913-2.8,1.913a1.693,1.693,0,0,1-1.2-.437A1.5,1.5,0,0,1,53.9-85.1a2.311,2.311,0,0,1,.58-1.446,5.129,5.129,0,0,1,1.574-1.265A11.991,11.991,0,0,1,61.746-89.261Zm-1.009,8.72A1.506,1.506,0,0,0,59.585-80a1.867,1.867,0,0,0-.489,1.3,1.845,1.845,0,0,0,.346,1.167,1.107,1.107,0,0,0,.919.444q1.2,0,1.2-2.033a2.408,2.408,0,0,0-.173-1.114A.732.732,0,0,0,60.737-80.541ZM88.237-93.6v13.75a6.921,6.921,0,0,0,.1,1.506,1.305,1.305,0,0,0,.55.648,2.792,2.792,0,0,1,.73.663,1.232,1.232,0,0,1,.188.693q0,1.2-2.425,1.837a17.6,17.6,0,0,1-4.367.557.934.934,0,0,1-.625-.143,1.21,1.21,0,0,1-.188-.685q-.075-.768-.542-.768a1.593,1.593,0,0,0-.8.452,5.284,5.284,0,0,1-3.419,1.25,6.023,6.023,0,0,1-4.2-1.732,8.5,8.5,0,0,1-1.777-2.394,7.747,7.747,0,0,1-.9-3.569,7.9,7.9,0,0,1,1.175-4.1,7.338,7.338,0,0,1,2.952-2.8,6.664,6.664,0,0,1,3.087-.813,6.254,6.254,0,0,1,3.132.783.836.836,0,0,0,.361.12q.482,0,.482-1.3a1.234,1.234,0,0,0-.264-.851,2.108,2.108,0,0,0-.941-.5q-.949-.3-.949-1.054,0-1.1,2.184-1.717a24.542,24.542,0,0,1,5.165-1.069Q88.237-94.833,88.237-93.6Zm-8.177,7.575a1.73,1.73,0,0,0-1.551,1.039,7.5,7.5,0,0,0-.768,3.644,5.327,5.327,0,0,0,.738,3.087,1.658,1.658,0,0,0,1.431.753,1.5,1.5,0,0,0,1.423-1.137,10.929,10.929,0,0,0,.444-3.667,6.059,6.059,0,0,0-.527-3.087A1.416,1.416,0,0,0,80.059-86.023Z" transform="translate(-2.803 97.225)" fill="#f15b5c"/></g></svg>